# xmcd
#
# Track frame offsets:
#	150
#	15766
#	33463
#	50003
#	66824
#	81461
#	92673
#	104658
#	121412
#
# Disc length: 1878 seconds
#
# Revision: 1
# Processed by: cddbd v1.5.2PL0 Copyright (c) Steve Scherf et al.
# Submitted via: audiograbber 1.83.01
#
DISCID=72075409
DTITLE=Andree Watters - Country Rock Cover
DYEAR=2012
DGENRE=Country
TTITLE0=Any Man Of Mine
TTITLE1=Proud Mary
TTITLE2=You Shook Me All Night Long
TTITLE3=The First Cut Is The Deepest
TTITLE4=It's A Heartache
TTITLE5=Jackson
TTITLE6=Jolene
TTITLE7=Time After Time
TTITLE8=I'm Like A Bird
EXTD=
EXTT0=
EXTT1=
EXTT2=
EXTT3=
EXTT4=
EXTT5=
EXTT6=
EXTT7=
EXTT8=
PLAYORDER=
